<svg width="427" height="705" viewBox="0 0 427 705" fill="none" xmlns="http://www.w3.org/2000/svg">
<mask id="path-1-inside-1_1_220" fill="white">
<path d="M0 10C0 4.47717 4.47715 0 10 0H417C422.523 0 427 4.47715 427 10V695C427 700.523 422.523 705 417 705H10C4.47715 705 0 700.523 0 695V10Z"/>
</mask>
<path d="M10 3H417V-3H10V3ZM424 10V695H430V10H424ZM417 702H10V708H417V702ZM3 695V10H-3V695H3ZM10 702C6.13401 702 3 698.866 3 695H-3C-3 702.18 2.8203 708 10 708V702ZM424 695C424 698.866 420.866 702 417 702V708C424.18 708 430 702.18 430 695H424ZM417 3C420.866 3 424 6.13401 424 10H430C430 2.8203 424.18 -3 417 -3V3ZM10 -3C2.82029 -3 -3 2.82032 -3 10H3C3 6.13401 6.13401 3 10 3V-3Z" fill="#1F86FF" mask="url(#path-1-inside-1_1_220)"/>
</svg>
